<svg width="294" height="50" viewBox="0 0 294 50" fill="none" xmlns="http://www.w3.org/2000/svg">
<path fill-rule="evenodd" clip-rule="evenodd" d="M21.741 19.5208L14 9H19.8696L27.6957 19.5208H21.741ZM24.3781 9.08484L32.1191 19.436L24.3781 30.1265H30.2476L38.2439 19.436L30.2476 9.08484H24.3781ZM34.7561 9.08484L42.6673 19.436L24.4631 43.7866H30.4178L48.6219 19.436L40.7108 9.08484H34.7561ZM45.3043 9L53.0454 19.5208H59L51.1739 9H45.3043Z" fill="#161616"/>
<path d="M91.7031 18.1719C91.7031 18.3802 91.6302 18.5104 91.4844 18.5625C91.3385 18.6042 91.151 18.625 90.9219 18.625H82.1875V33.8438C82.1875 34 82.1823 34.1458 82.1719 34.2812C82.1615 34.4167 82.1302 34.5417 82.0781 34.6562C82.0365 34.7604 81.974 34.8438 81.8906 34.9062C81.8073 34.9688 81.6875 35 81.5312 35C81.2604 35 81.0781 34.8854 80.9844 34.6562C80.901 34.4167 80.8594 34.1458 80.8594 33.8438V18.625H72.1094C71.8802 18.625 71.6823 18.6042 71.5156 18.5625C71.3594 18.5104 71.2812 18.3802 71.2812 18.1719C71.2812 18.0156 71.3177 17.901 71.3906 17.8281C71.4635 17.7448 71.5521 17.6875 71.6562 17.6562C71.7708 17.625 71.8958 17.6094 72.0312 17.6094C72.1771 17.599 72.3125 17.5938 72.4375 17.5938H90.5781C90.7344 17.5938 90.8802 17.599 91.0156 17.6094C91.151 17.6094 91.2656 17.625 91.3594 17.6562C91.4635 17.6875 91.5469 17.7448 91.6094 17.8281C91.6719 17.901 91.7031 18.0156 91.7031 18.1719ZM109.828 23C109.828 23.6354 109.734 24.1927 109.547 24.6719C109.359 25.151 109.104 25.5677 108.781 25.9219C108.469 26.276 108.094 26.5729 107.656 26.8125C107.229 27.0521 106.771 27.25 106.281 27.4062C105.792 27.5521 105.281 27.6615 104.75 27.7344C104.229 27.8073 103.719 27.8542 103.219 27.875L108.969 33.9219C109.062 34.0156 109.125 34.1146 109.156 34.2188C109.198 34.3125 109.224 34.401 109.234 34.4844C109.234 34.6302 109.182 34.7552 109.078 34.8594C108.984 34.9531 108.859 35 108.703 35C108.589 35 108.464 34.974 108.328 34.9219C108.203 34.8698 108.078 34.7708 107.953 34.625L101.688 27.9375H95.8438V33.8125C95.8438 33.9688 95.8333 34.1198 95.8125 34.2656C95.8021 34.401 95.776 34.526 95.7344 34.6406C95.6927 34.7448 95.6302 34.8333 95.5469 34.9062C95.474 34.9688 95.375 35 95.25 35C94.9479 35 94.75 34.8854 94.6562 34.6562C94.5625 34.4167 94.5156 34.1354 94.5156 33.8125V18.1719C94.5156 18.0156 94.5156 17.901 94.5156 17.8281C94.526 17.7448 94.5469 17.6875 94.5781 17.6562C94.6094 17.625 94.6615 17.6094 94.7344 17.6094C94.8177 17.599 94.9375 17.5938 95.0938 17.5938H99.625C100.594 17.5938 101.516 17.6042 102.391 17.625C103.276 17.6458 104.094 17.7135 104.844 17.8281C105.604 17.9323 106.292 18.099 106.906 18.3281C107.521 18.5469 108.042 18.8594 108.469 19.2656C108.906 19.6615 109.24 20.1615 109.469 20.7656C109.708 21.3698 109.828 22.1146 109.828 23ZM108.5 23C108.5 21.9688 108.307 21.1615 107.922 20.5781C107.547 19.9844 106.984 19.5469 106.234 19.2656C105.484 18.974 104.557 18.7969 103.453 18.7344C102.349 18.6615 101.073 18.625 99.625 18.625H95.8438V26.9062H101.703C102.609 26.9062 103.474 26.8646 104.297 26.7812C105.12 26.6979 105.839 26.5208 106.453 26.25C107.078 25.9688 107.573 25.5729 107.938 25.0625C108.312 24.5521 108.5 23.8646 108.5 23ZM121.344 18.3906C121.51 18.0885 121.641 17.8802 121.734 17.7656C121.828 17.651 121.969 17.5938 122.156 17.5938C122.302 17.5938 122.427 17.651 122.531 17.7656C122.646 17.8698 122.792 18.0781 122.969 18.3906L131.594 33.9531C131.708 34.1615 131.766 34.3646 131.766 34.5625C131.766 34.75 131.714 34.8958 131.609 35C131.505 35.1042 131.38 35.1562 131.234 35.1562C131.089 35.1562 130.943 35.1042 130.797 35C130.661 34.9062 130.521 34.7292 130.375 34.4688L127.719 29.6562H116.594L113.906 34.5312C113.792 34.75 113.656 34.9062 113.5 35C113.354 35.1042 113.208 35.1562 113.062 35.1562C112.885 35.1562 112.755 35.0938 112.672 34.9688C112.589 34.8438 112.547 34.6771 112.547 34.4688C112.547 34.3854 112.562 34.3021 112.594 34.2188C112.635 34.1354 112.682 34.0417 112.734 33.9375L121.344 18.3906ZM127.266 28.7344L122.156 19.4062L117.047 28.7344H127.266ZM152.75 33V18.7812C152.75 18.625 152.755 18.4792 152.766 18.3438C152.776 18.1979 152.802 18.0729 152.844 17.9688C152.896 17.8542 152.964 17.7656 153.047 17.7031C153.141 17.6302 153.266 17.5938 153.422 17.5938C153.693 17.5938 153.87 17.7135 153.953 17.9531C154.036 18.1823 154.078 18.4583 154.078 18.7812V34C154.078 34.6667 153.901 35 153.547 35C153.307 35 153.01 34.8385 152.656 34.5156L136.547 19.5938V33.9062C136.547 34.2083 136.5 34.4688 136.406 34.6875C136.323 34.8958 136.156 35 135.906 35C135.604 35 135.411 34.8958 135.328 34.6875C135.255 34.4688 135.219 34.2083 135.219 33.9062V18.6094C135.219 18.2969 135.276 18.0573 135.391 17.8906C135.505 17.724 135.661 17.6406 135.859 17.6406C136.12 17.6406 136.422 17.7969 136.766 18.1094L152.75 33ZM178.891 30.1406C178.891 30.8073 178.771 31.401 178.531 31.9219C178.292 32.4323 177.958 32.8802 177.531 33.2656C177.104 33.6406 176.594 33.9635 176 34.2344C175.417 34.4948 174.781 34.7083 174.094 34.875C173.406 35.0312 172.672 35.1406 171.891 35.2031C171.12 35.276 170.339 35.3125 169.547 35.3125C168.432 35.3125 167.323 35.2552 166.219 35.1406C165.115 35.026 164.083 34.8854 163.125 34.7188C162.167 34.5417 161.318 34.3542 160.578 34.1562C159.849 33.9583 159.297 33.7708 158.922 33.5938C158.776 33.5208 158.667 33.4323 158.594 33.3281C158.531 33.2135 158.5 33.099 158.5 32.9844C158.5 32.8594 158.531 32.7552 158.594 32.6719C158.667 32.5781 158.771 32.5312 158.906 32.5312C158.969 32.5312 159.042 32.5469 159.125 32.5781C159.531 32.7448 160.115 32.9271 160.875 33.125C161.635 33.3229 162.495 33.5104 163.453 33.6875C164.422 33.8542 165.448 33.9948 166.531 34.1094C167.625 34.224 168.708 34.2812 169.781 34.2812C170.823 34.2812 171.812 34.2135 172.75 34.0781C173.688 33.9427 174.51 33.7135 175.219 33.3906C175.938 33.0677 176.505 32.6406 176.922 32.1094C177.349 31.5781 177.562 30.9219 177.562 30.1406C177.562 29.4844 177.38 28.9479 177.016 28.5312C176.661 28.1042 176.177 27.7656 175.562 27.5156C174.948 27.2552 174.229 27.0625 173.406 26.9375C172.583 26.8021 171.708 26.7031 170.781 26.6406C169.865 26.5677 168.917 26.5156 167.938 26.4844C166.958 26.4427 166.005 26.3802 165.078 26.2969C164.161 26.2135 163.292 26.0938 162.469 25.9375C161.646 25.7812 160.927 25.5521 160.312 25.25C159.698 24.9479 159.208 24.5573 158.844 24.0781C158.49 23.599 158.312 22.9948 158.312 22.2656C158.312 21.599 158.438 21.0104 158.688 20.5C158.938 19.9896 159.281 19.5521 159.719 19.1875C160.156 18.8125 160.672 18.5052 161.266 18.2656C161.87 18.0156 162.521 17.8177 163.219 17.6719C163.927 17.526 164.667 17.4219 165.438 17.3594C166.219 17.2969 167 17.2656 167.781 17.2656C168.75 17.2656 169.703 17.3125 170.641 17.4062C171.578 17.4896 172.458 17.6094 173.281 17.7656C174.104 17.9115 174.844 18.0781 175.5 18.2656C176.156 18.4427 176.682 18.625 177.078 18.8125C177.161 18.8542 177.224 18.9167 177.266 19C177.307 19.0729 177.328 19.151 177.328 19.2344C177.328 19.3802 177.276 19.5156 177.172 19.6406C177.078 19.7656 176.943 19.8281 176.766 19.8281C176.661 19.8281 176.573 19.8073 176.5 19.7656C175.948 19.5365 175.333 19.3333 174.656 19.1562C173.99 18.9688 173.281 18.8125 172.531 18.6875C171.781 18.5625 171.005 18.4688 170.203 18.4062C169.411 18.3333 168.625 18.2969 167.844 18.2969C166.76 18.2969 165.724 18.3594 164.734 18.4844C163.745 18.6094 162.87 18.8229 162.109 19.125C161.359 19.4167 160.76 19.8125 160.312 20.3125C159.865 20.8021 159.641 21.4219 159.641 22.1719C159.641 22.7448 159.818 23.2135 160.172 23.5781C160.536 23.9323 161.026 24.2188 161.641 24.4375C162.255 24.6562 162.974 24.8229 163.797 24.9375C164.62 25.0417 165.49 25.125 166.406 25.1875C167.333 25.25 168.286 25.3073 169.266 25.3594C170.245 25.401 171.193 25.4792 172.109 25.5938C173.036 25.6979 173.911 25.849 174.734 26.0469C175.557 26.2344 176.276 26.5 176.891 26.8438C177.505 27.1875 177.99 27.6302 178.344 28.1719C178.708 28.7031 178.891 29.3594 178.891 30.1406ZM198.688 23.7969C198.688 24.7448 198.568 25.5469 198.328 26.2031C198.099 26.849 197.776 27.3854 197.359 27.8125C196.943 28.2396 196.438 28.5729 195.844 28.8125C195.26 29.0417 194.615 29.2135 193.906 29.3281C193.198 29.4427 192.438 29.5104 191.625 29.5312C190.823 29.5521 189.995 29.5625 189.141 29.5625H184.484V33.8125C184.484 34.1146 184.443 34.3906 184.359 34.6406C184.286 34.8802 184.125 35 183.875 35C183.573 35 183.375 34.8854 183.281 34.6562C183.198 34.4167 183.156 34.1354 183.156 33.8125V18.1719C183.156 18.0156 183.167 17.901 183.188 17.8281C183.219 17.7448 183.266 17.6875 183.328 17.6562C183.391 17.625 183.469 17.6094 183.562 17.6094C183.667 17.599 183.797 17.5938 183.953 17.5938H189.141C190.089 17.5938 190.979 17.6198 191.812 17.6719C192.656 17.724 193.432 17.8333 194.141 18C194.849 18.1562 195.484 18.375 196.047 18.6562C196.609 18.9375 197.083 19.3125 197.469 19.7812C197.865 20.2396 198.167 20.7969 198.375 21.4531C198.583 22.1094 198.688 22.8906 198.688 23.7969ZM197.359 23.7969C197.359 22.7135 197.193 21.8333 196.859 21.1562C196.536 20.4792 196.036 19.9531 195.359 19.5781C194.693 19.2031 193.844 18.9531 192.812 18.8281C191.781 18.6927 190.557 18.625 189.141 18.625H184.484V28.5938H189.141C190.557 28.5938 191.781 28.5521 192.812 28.4688C193.854 28.375 194.708 28.1667 195.375 27.8438C196.052 27.5104 196.552 27.026 196.875 26.3906C197.198 25.7552 197.359 24.8906 197.359 23.7969ZM224.094 26.2969C224.094 27.8177 223.865 29.1458 223.406 30.2812C222.958 31.4062 222.26 32.3438 221.312 33.0938C220.375 33.8438 219.182 34.4062 217.734 34.7812C216.297 35.1458 214.589 35.3281 212.609 35.3281C210.63 35.3281 208.917 35.1458 207.469 34.7812C206.031 34.4062 204.844 33.8438 203.906 33.0938C202.969 32.3438 202.271 31.4062 201.812 30.2812C201.365 29.1458 201.141 27.8177 201.141 26.2969C201.141 24.776 201.365 23.4531 201.812 22.3281C202.271 21.1927 202.969 20.25 203.906 19.5C204.844 18.75 206.031 18.1927 207.469 17.8281C208.917 17.4531 210.63 17.2656 212.609 17.2656C214.589 17.2656 216.297 17.4531 217.734 17.8281C219.182 18.1927 220.375 18.75 221.312 19.5C222.26 20.25 222.958 21.1927 223.406 22.3281C223.865 23.4531 224.094 24.776 224.094 26.2969ZM202.469 26.2969C202.469 27.7552 202.677 28.9896 203.094 30C203.51 31.0104 204.135 31.8385 204.969 32.4844C205.812 33.1198 206.87 33.5833 208.141 33.875C209.411 34.1562 210.901 34.2969 212.609 34.2969C214.318 34.2969 215.807 34.1562 217.078 33.875C218.349 33.5833 219.406 33.1198 220.25 32.4844C221.094 31.8385 221.724 31.0104 222.141 30C222.557 28.9896 222.766 27.7552 222.766 26.2969C222.766 24.849 222.557 23.6198 222.141 22.6094C221.724 21.5885 221.094 20.7604 220.25 20.125C219.406 19.4792 218.349 19.0156 217.078 18.7344C215.807 18.4427 214.318 18.2969 212.609 18.2969C210.901 18.2969 209.411 18.4427 208.141 18.7344C206.87 19.0156 205.812 19.4792 204.969 20.125C204.135 20.7604 203.51 21.5885 203.094 22.6094C202.677 23.6198 202.469 24.849 202.469 26.2969ZM243.859 23C243.859 23.6354 243.766 24.1927 243.578 24.6719C243.391 25.151 243.135 25.5677 242.812 25.9219C242.5 26.276 242.125 26.5729 241.688 26.8125C241.26 27.0521 240.802 27.25 240.312 27.4062C239.823 27.5521 239.312 27.6615 238.781 27.7344C238.26 27.8073 237.75 27.8542 237.25 27.875L243 33.9219C243.094 34.0156 243.156 34.1146 243.188 34.2188C243.229 34.3125 243.255 34.401 243.266 34.4844C243.266 34.6302 243.214 34.7552 243.109 34.8594C243.016 34.9531 242.891 35 242.734 35C242.62 35 242.495 34.974 242.359 34.9219C242.234 34.8698 242.109 34.7708 241.984 34.625L235.719 27.9375H229.875V33.8125C229.875 33.9688 229.865 34.1198 229.844 34.2656C229.833 34.401 229.807 34.526 229.766 34.6406C229.724 34.7448 229.661 34.8333 229.578 34.9062C229.505 34.9688 229.406 35 229.281 35C228.979 35 228.781 34.8854 228.688 34.6562C228.594 34.4167 228.547 34.1354 228.547 33.8125V18.1719C228.547 18.0156 228.547 17.901 228.547 17.8281C228.557 17.7448 228.578 17.6875 228.609 17.6562C228.641 17.625 228.693 17.6094 228.766 17.6094C228.849 17.599 228.969 17.5938 229.125 17.5938H233.656C234.625 17.5938 235.547 17.6042 236.422 17.625C237.307 17.6458 238.125 17.7135 238.875 17.8281C239.635 17.9323 240.323 18.099 240.938 18.3281C241.552 18.5469 242.073 18.8594 242.5 19.2656C242.938 19.6615 243.271 20.1615 243.5 20.7656C243.74 21.3698 243.859 22.1146 243.859 23ZM242.531 23C242.531 21.9688 242.339 21.1615 241.953 20.5781C241.578 19.9844 241.016 19.5469 240.266 19.2656C239.516 18.974 238.589 18.7969 237.484 18.7344C236.38 18.6615 235.104 18.625 233.656 18.625H229.875V26.9062H235.734C236.641 26.9062 237.505 26.8646 238.328 26.7812C239.151 26.6979 239.87 26.5208 240.484 26.25C241.109 25.9688 241.604 25.5729 241.969 25.0625C242.344 24.5521 242.531 23.8646 242.531 23ZM265.391 18.1719C265.391 18.3802 265.318 18.5104 265.172 18.5625C265.026 18.6042 264.839 18.625 264.609 18.625H255.875V33.8438C255.875 34 255.87 34.1458 255.859 34.2812C255.849 34.4167 255.818 34.5417 255.766 34.6562C255.724 34.7604 255.661 34.8438 255.578 34.9062C255.495 34.9688 255.375 35 255.219 35C254.948 35 254.766 34.8854 254.672 34.6562C254.589 34.4167 254.547 34.1458 254.547 33.8438V18.625H245.797C245.568 18.625 245.37 18.6042 245.203 18.5625C245.047 18.5104 244.969 18.3802 244.969 18.1719C244.969 18.0156 245.005 17.901 245.078 17.8281C245.151 17.7448 245.24 17.6875 245.344 17.6562C245.458 17.625 245.583 17.6094 245.719 17.6094C245.865 17.599 246 17.5938 246.125 17.5938H264.266C264.422 17.5938 264.568 17.599 264.703 17.6094C264.839 17.6094 264.953 17.625 265.047 17.6562C265.151 17.6875 265.234 17.7448 265.297 17.8281C265.359 17.901 265.391 18.0156 265.391 18.1719Z" fill="black"/>
</svg>
